<?xml version="1.0" standalone="no"?>
<!DOCTYPE svg PUBLIC "-//W3C//DTD SVG 20010904//EN"
 "http://www.w3.org/TR/2001/REC-SVG-20010904/DTD/svg10.dtd">
<svg version="1.0" xmlns="http://www.w3.org/2000/svg"
 width="676.000000pt" height="676.000000pt" viewBox="0 0 676.000000 676.000000"
 preserveAspectRatio="xMidYMid meet">
<metadata>
Created by potrace 1.14, written by Peter Selinger 2001-2017
</metadata>
<g transform="translate(0.000000,676.000000) scale(0.100000,-0.100000)"
fill="#000000" stroke="none">
<path d="M3158 6755 c-2 -1 -39 -5 -83 -9 -74 -6 -247 -29 -305 -41 -14 -3
-36 -7 -50 -10 -57 -11 -77 -15 -159 -36 -47 -12 -90 -22 -96 -24 -5 -1 -17
-4 -25 -8 -8 -3 -67 -22 -130 -42 -686 -220 -1323 -705 -1732 -1318 -69 -103
-93 -140 -140 -222 -21 -34 -146 -290 -173 -350 -61 -140 -155 -430 -179 -555
-3 -14 -8 -36 -11 -50 -10 -41 -35 -182 -41 -230 -3 -25 -7 -56 -10 -70 -29
-173 -26 -636 6 -860 17 -120 21 -145 27 -165 4 -11 7 -29 9 -40 12 -104 107
-438 158 -560 7 -16 26 -61 42 -100 37 -93 132 -282 186 -373 24 -40 48 -80
53 -90 67 -114 193 -284 314 -425 253 -295 548 -538 893 -736 89 -51 268 -142
288 -147 3 0 28 -11 55 -23 94 -43 297 -114 428 -151 77 -21 94 -25 151 -36
16 -2 32 -6 35 -8 3 -2 24 -7 46 -10 22 -4 47 -9 55 -11 8 -3 31 -7 50 -9 19
-3 51 -7 70 -10 138 -23 264 -31 480 -31 188 0 403 10 420 19 3 2 30 7 60 10
69 8 232 36 240 41 4 2 22 7 41 10 19 3 59 13 89 21 30 9 63 18 72 19 78 16
478 163 502 186 6 5 18 9 27 9 10 0 19 3 21 8 2 4 38 25 82 46 69 35 314 177
341 198 6 5 55 41 110 81 270 197 521 446 723 719 64 86 151 215 177 263 7 11
33 58 59 103 48 84 137 268 171 352 10 25 23 59 30 75 13 29 44 120 49 140 2
6 6 17 9 25 10 27 40 125 40 130 0 3 6 25 13 50 17 58 61 262 69 320 3 25 8
56 10 70 3 14 7 48 10 75 3 28 9 82 14 120 8 69 6 552 -3 610 -2 17 -7 55 -11
85 -3 30 -8 69 -11 85 -3 17 -7 44 -10 60 -49 310 -156 641 -304 940 -72 143
-77 153 -144 265 -153 254 -378 526 -613 740 -89 82 -110 100 -203 170 -47 36
-87 68 -90 71 -3 3 -48 33 -100 67 -52 34 -100 67 -107 72 -7 6 -14 10 -17 10
-2 0 -40 21 -83 47 -201 119 -551 265 -763 319 -216 54 -371 85 -505 100 -33
3 -73 8 -90 11 -33 5 -531 13 -537 8z"/>
</g>
</svg>
